<svg id="Capa_1" enable-background="new 0 0 512 512" height="512" viewBox="0 0 512 512" width="512" xmlns="http://www.w3.org/2000/svg"><g><g clip-rule="evenodd" fill-rule="evenodd"><path d="m90.003 455.999 115.469-199.999-115.469-200h-80.003l115.47 200-115.47 199.999z" fill="#a0e4a5"/><path d="m158.264 56 115.469 200-115.469 199.999h80.003l115.469-199.999-115.469-200z" fill="#cef1d0"/><path d="m306.528 56 115.469 200-115.469 199.999h80.002l115.47-199.999-115.47-200z" fill="#a0e4a5"/></g><g><path d="m510.66 251-115.469-199.999c-1.786-3.094-5.087-5-8.66-5h-80.003c-3.573 0-6.874 1.906-8.66 5-1.787 3.094-1.787 6.906 0 10l112.582 194.999-112.582 194.999c-1.787 3.094-1.787 6.906 0 10 1.786 3.094 5.087 5 8.66 5h80.003c3.573 0 6.874-1.906 8.66-5l115.469-199.999c1.787-3.094 1.787-6.906 0-10zm-129.903 194.999h-56.908l106.808-184.999c1.787-3.094 1.787-6.906 0-10l-106.808-184.999h56.908l109.696 189.999z"/><path d="m362.396 251-115.469-199.999c-1.786-3.094-5.087-5-8.66-5h-80.002c-3.573 0-6.874 1.906-8.66 5-1.787 3.094-1.787 6.906 0 10l35.231 61.021c2.76 4.781 8.877 6.422 13.66 3.66s6.422-8.877 3.66-13.66l-26.57-46.021h56.908l109.695 189.999-109.696 189.999h-56.908l106.809-184.999c1.787-3.094 1.787-6.906 0-10l-35.233-61.025c-2.762-4.783-8.877-6.422-13.66-3.66s-6.422 8.877-3.66 13.66l32.346 56.025-112.583 194.999c-1.787 3.094-1.787 6.906 0 10 1.786 3.094 5.087 5 8.66 5h80.002c3.573 0 6.874-1.906 8.66-5l115.47-199.999c1.787-3.094 1.787-6.906 0-10z"/><path d="m214.132 251-115.469-199.999c-1.786-3.094-5.087-5-8.66-5h-80.003c-3.573 0-6.874 1.906-8.66 5-1.787 3.094-1.787 6.906 0 10l112.583 194.999-112.583 194.999c-1.787 3.094-1.787 6.906 0 10 1.786 3.094 5.087 5 8.66 5h80.003c3.573 0 6.874-1.906 8.66-5l115.469-199.999c1.787-3.094 1.787-6.906 0-10zm-129.903 194.999h-56.908l106.809-184.999c1.787-3.094 1.787-6.906 0-10l-106.809-184.999h56.909l109.695 189.999z"/><path d="m225.999 156c0-5.522-4.477-10-10-10h-.007c-5.523 0-9.996 4.478-9.996 10s4.48 10 10.003 10 10-4.477 10-10z"/></g></g></svg>